<?xml version="1.0" encoding="iso-8859-1"?>
<!DOCTYPE svg PUBLIC "-//W3C//DTD SVG 1.0//EN" "http://www.w3.org/TR/2001/REC-SVG-20010904/DTD/svg10.dtd">
<!-- Creator: CorelDRAW -->
<svg xmlns="http://www.w3.org/2000/svg" xmlns:odm="http://product.corel.com/CGS/11/cddns/" xml:space="preserve" xmlns:xlink="http://www.w3.org/1999/xlink" width="5.94488in" height="3.30709in" style="shape-rendering:geometricPrecision; text-rendering:geometricPrecision; image-rendering:optimizeQuality; fill-rule:evenodd"
     viewBox="0 0 5944 3308">
 <defs>
  <style type="text/css">
   <![CDATA[
    .str1 {stroke:#131516;stroke-width:28;stroke-linejoin:bevel}
    .str0 {stroke:#E77817;stroke-width:28;stroke-linejoin:bevel;stroke-dasharray:14 20}
    .fil1 {fill:none}
    .fil0 {fill:#1F1A17}
   ]]>
  </style>
 </defs>
 <g id="Ebene 1">
  <path class="fil0" d="M5852 1579l-28 0 -1 -1 0 -5 2 -1c8,-2 18,-5 31,-9 0,-3 0,-7 1,-14 2,-10 3,-18 3,-25 6,-1 14,-4 25,-8 5,-1 8,-2 9,-3l3 4c-3,8 -7,25 -12,48l14 0c11,0 18,0 23,-1l1 2c-1,4 -2,8 -3,13l-2 1c-6,0 -14,-1 -22,-1l-14 0c-2,8 -4,17 -6,26l-5 27 -5 21c-1,5 -1,9 -2,11 0,1 0,3 0,4 0,3 1,4 2,6 1,1 3,1 4,1 2,0 4,0 6,-1 2,0 4,-2 7,-4 4,-2 9,-6 17,-11l2 0 3 5 0 2c-21,15 -35,24 -41,27 -7,3 -12,5 -16,5 -5,0 -9,-2 -12,-5 -3,-3 -4,-7 -4,-13 0,-3 1,-7 1,-12 1,-5 4,-17 8,-36 7,-33 11,-50 11,-53z"/>
  <path class="fil0" d="M1349 258l-6 13c-12,7 -24,10 -36,10 -20,0 -36,-6 -47,-18 -10,-11 -16,-27 -16,-47 0,-19 5,-33 13,-43 2,-2 6,-6 13,-10 13,-10 21,-15 26,-17 4,-2 11,-3 20,-3 12,0 22,2 30,6l2 2c0,2 -1,6 -2,13l-2 9c0,2 0,8 -1,18l-1 2 -8 0 -2 -2c0,-8 -1,-13 -2,-16 -4,-7 -11,-11 -22,-11 -20,0 -29,12 -29,37 0,18 4,33 11,43 8,11 19,16 34,16 8,0 16,-2 22,-5l3 3z"/>
  <path class="fil0" d="M1499 208c0,32 -11,53 -32,64 -11,6 -23,9 -36,9 -21,0 -37,-6 -48,-18 -11,-12 -16,-30 -16,-52 0,-31 10,-52 32,-62 10,-5 22,-8 36,-8 29,0 48,10 57,30 5,10 7,22 7,37zm-38 11c0,-23 -2,-39 -7,-49 -5,-9 -13,-14 -23,-14 -18,0 -27,16 -27,48 0,42 10,63 31,63 12,0 20,-7 24,-21 1,-7 2,-16 2,-27z"/>
  <path class="fil0" d="M1624 232c0,15 -6,26 -17,35 -11,9 -25,14 -43,14 -12,0 -26,-3 -40,-8l-2 -2c1,-9 2,-15 2,-20l1 -17 1 -1 8 0 2 1c0,10 0,16 1,18 7,10 18,15 30,15 8,0 14,-2 19,-6 5,-4 7,-9 7,-16 0,-8 -3,-13 -11,-16 -3,-1 -9,-3 -18,-5 -15,-3 -25,-6 -30,-11 -8,-6 -11,-15 -11,-27 0,-13 4,-23 14,-31 10,-9 23,-13 40,-13 15,0 27,3 36,7l2 3c-1,4 -2,14 -3,31l-1 1 -8 0 -1 -1c-1,-7 -1,-12 -2,-16 -6,-7 -14,-11 -25,-11 -7,0 -13,2 -17,5 -5,4 -7,8 -7,14 0,7 4,12 11,15 4,1 10,3 20,5 16,3 26,6 30,10 8,6 12,15 12,27z"/>
  <path class="fil0" d="M1715 317c-11,-12 -21,-26 -30,-42 -9,-16 -16,-30 -20,-43 -3,-13 -5,-28 -5,-43 0,-14 1,-27 5,-39 3,-12 8,-25 15,-38 8,-14 17,-27 30,-40 12,-13 26,-26 43,-40l2 0 7 6 -1 2c-21,22 -37,47 -48,77 -11,30 -17,62 -17,95 0,21 2,39 7,56 5,16 12,30 21,42l-1 2 -6 5 -2 0z"/>
  <path class="fil0" d="M2218 32c9,10 19,24 28,40 10,16 17,31 21,44 4,13 6,28 6,45 0,14 -2,27 -5,39 -3,12 -8,24 -16,38 -7,13 -17,26 -29,39 -12,14 -27,27 -44,40l-2 0 -6 -6 0 -2c21,-21 37,-46 49,-77 11,-30 17,-61 17,-95 0,-40 -10,-73 -28,-98l0 -2 7 -5 2 0z"/>
  <path class="fil0" d="M1887 151l0 19 -33 0c-3,21 -5,41 -5,60 0,9 2,16 5,20 3,4 7,6 12,6 4,0 7,-2 10,-4 3,-3 5,-7 6,-12l5 0c-2,14 -5,24 -11,30 -5,6 -11,9 -17,9 -8,0 -13,-3 -18,-10 -5,-6 -7,-18 -7,-36 0,-11 2,-32 5,-63l-35 0c-3,48 -6,78 -10,90 -4,13 -10,19 -17,19 -3,0 -6,-1 -8,-3 -2,-2 -3,-5 -3,-8 0,-3 0,-5 1,-7 1,-2 3,-5 6,-9 6,-8 10,-15 12,-23 4,-14 6,-34 7,-59l-6 0c-6,0 -11,1 -15,3 -5,4 -10,9 -14,17l-5 0c5,-16 11,-27 18,-33 5,-4 12,-6 21,-6l96 0z"/>
  <path class="fil0" d="M1910 161l1 -5 2 -2c2,0 6,-2 12,-3 6,-2 11,-4 15,-5 0,-1 0,-3 1,-8 2,-7 3,-11 4,-14 2,-3 4,-6 6,-10 3,-3 9,-8 16,-15 8,-7 15,-12 22,-17 6,-4 11,-7 14,-9 4,-1 7,-2 11,-2 5,0 9,1 13,3 -4,12 -7,24 -8,35l-4 1c-7,-11 -14,-16 -21,-16 -3,0 -5,1 -7,2 -2,2 -4,4 -5,7 -2,2 -3,8 -6,18 -2,9 -4,18 -5,27l3 0c2,0 7,0 15,-1 8,0 14,-1 16,-1l2 2c-2,5 -4,9 -4,13l-2 1c-3,0 -9,0 -19,0 -7,0 -12,0 -14,0l-11 47c-4,19 -8,37 -12,51 -6,20 -11,35 -17,46 -5,10 -12,19 -20,27 -8,8 -15,14 -22,17 -4,2 -8,3 -11,3 -4,0 -7,-1 -11,-2 5,-12 8,-22 9,-31l5 0c3,8 8,12 13,12 2,0 4,0 6,-1 1,-1 3,-3 5,-5 1,-2 3,-8 5,-17 3,-9 5,-22 9,-39l10 -52 10 -56c-5,0 -9,0 -12,0 -5,0 -9,0 -13,0l-1 -1z"/>
  <path class="fil0" d="M2117 162l-28 0 -1 -1 1 -5 1 -2c8,-1 18,-4 31,-9 0,-2 0,-6 2,-13 1,-10 2,-18 2,-25 6,-1 14,-4 25,-8 5,-2 8,-3 9,-3l3 3c-3,9 -7,25 -12,49l14 0c11,0 18,-1 23,-2l1 3c-1,4 -2,8 -3,13l-2 1c-6,-1 -14,-1 -22,-1l-14 0c-2,8 -3,16 -6,26l-5 27 -4 20c-2,6 -2,10 -2,11 -1,2 -1,4 -1,5 0,2 1,4 2,5 1,2 3,2 5,2 1,0 3,0 5,-1 2,-1 4,-2 8,-4 3,-2 9,-6 17,-12l1 0 3 6 0 1c-21,16 -35,25 -41,28 -7,3 -12,5 -16,5 -5,0 -9,-2 -12,-5 -2,-4 -4,-8 -4,-13 0,-3 1,-8 2,-12 0,-5 3,-17 7,-36 7,-33 11,-50 11,-53z"/>
  <path class="fil0" d="M2067 299c0,7 -2,14 -7,20 -3,5 -8,8 -14,11 -6,2 -12,3 -20,3 -9,0 -19,-2 -28,-6l-1 -2c2,-5 2,-12 2,-22l1 -1 4 0 1 1 0 2c0,2 0,6 1,10 1,3 4,5 9,7 4,2 8,3 13,3 9,0 15,-3 19,-9 2,-3 2,-6 2,-10 0,-6 -2,-10 -7,-12 -2,-2 -6,-3 -11,-3 -12,-2 -20,-5 -24,-7 -6,-5 -9,-11 -9,-20 0,-9 3,-17 10,-22 6,-6 15,-9 27,-9 11,0 19,2 26,5l0 2c-1,5 -2,12 -2,19l-1 1 -4 0 0 -1c-1,-5 -1,-9 -1,-10 -2,-3 -4,-4 -8,-6 -3,-1 -7,-2 -11,-2 -6,0 -11,1 -14,5 -4,3 -5,7 -5,11 0,6 1,9 5,12 3,1 8,3 18,4 0,1 3,1 7,2 3,0 6,1 8,2 4,1 8,4 10,8 3,3 4,8 4,14z"/>
  <path class="fil0" d="M562 3201l-6 13c-13,6 -25,10 -37,10 -20,0 -35,-6 -46,-18 -11,-11 -16,-27 -16,-47 0,-19 4,-33 12,-43 3,-2 7,-6 13,-10 13,-10 22,-15 26,-17 5,-2 12,-3 21,-3 12,0 22,2 30,6l1 2c0,1 0,6 -1,13l-2 9c0,2 -1,8 -1,18l-2 2 -8 0 -1 -2c-1,-8 -1,-13 -2,-17 -4,-7 -12,-10 -23,-10 -19,0 -29,12 -29,37 0,18 4,32 12,43 8,11 19,16 33,16 9,0 16,-2 23,-6l3 4z"/>
  <path class="fil0" d="M712 3150c0,32 -11,54 -33,65 -10,6 -22,9 -36,9 -20,0 -36,-6 -47,-18 -11,-12 -17,-30 -17,-52 0,-31 11,-52 32,-62 11,-5 23,-8 36,-8 29,0 48,10 58,30 4,10 7,22 7,36zm-38 12c0,-23 -3,-39 -7,-49 -5,-10 -13,-14 -23,-14 -18,0 -27,16 -27,48 0,42 10,63 30,63 13,0 21,-7 24,-21 2,-7 3,-16 3,-27z"/>
  <path class="fil0" d="M836 3175c0,15 -5,26 -16,35 -11,9 -25,14 -43,14 -13,0 -26,-3 -41,-8l-1 -3c1,-8 1,-14 1,-19l1 -17 2 -1 8 0 1 1c1,10 1,16 1,18 8,10 18,15 31,15 8,0 14,-2 19,-6 5,-4 7,-9 7,-16 0,-8 -4,-13 -11,-16 -3,-1 -9,-3 -18,-5 -15,-3 -25,-7 -30,-11 -8,-6 -12,-15 -12,-27 0,-13 5,-24 15,-31 9,-9 23,-13 40,-13 14,0 26,2 36,7l1 3c-1,4 -2,14 -2,31l-2 1 -7 0 -2 -1c0,-7 -1,-12 -2,-16 -5,-7 -14,-11 -25,-11 -7,0 -12,2 -17,5 -4,4 -7,8 -7,14 0,7 4,12 12,15 3,1 10,3 20,5 15,3 25,6 30,10 8,6 11,15 11,27z"/>
  <path class="fil0" d="M927 3260c-10,-12 -20,-26 -30,-42 -9,-16 -15,-31 -19,-43 -4,-13 -6,-28 -6,-43 0,-15 2,-28 5,-40 3,-12 9,-24 16,-38 7,-13 17,-26 29,-39 12,-13 27,-27 44,-40l2 0 6 6 0 2c-21,21 -37,47 -48,77 -12,30 -17,62 -17,95 0,21 2,39 7,56 5,16 11,30 20,42l0 2 -7 5 -2 0z"/>
  <path class="fil0" d="M1431 2975c9,10 18,24 28,40 10,16 16,31 20,44 5,13 7,28 7,45 0,14 -2,27 -5,39 -3,12 -9,24 -16,38 -7,13 -17,26 -29,39 -13,13 -27,27 -44,40l-2 0 -6 -6 0 -2c21,-21 37,-46 48,-77 12,-30 17,-62 17,-95 0,-40 -9,-73 -27,-98l0 -2 7 -5 2 0z"/>
  <path class="fil0" d="M1099 3093l0 20 -33 0c-3,21 -4,41 -4,60 0,9 1,16 5,20 3,4 7,6 12,6 4,0 7,-2 10,-4 3,-3 5,-7 5,-12l5 0c-1,14 -5,24 -10,30 -5,6 -11,9 -18,9 -7,0 -13,-3 -17,-10 -5,-6 -8,-18 -8,-36 0,-11 2,-32 6,-63l-36 0c-2,48 -6,77 -10,90 -4,13 -9,19 -16,19 -3,0 -6,-1 -8,-3 -2,-3 -3,-5 -3,-8 0,-3 0,-5 1,-7 1,-2 3,-5 6,-9 5,-8 9,-15 11,-24 4,-13 7,-33 8,-58l-6 0c-7,0 -12,1 -15,3 -5,4 -10,9 -14,17l-6 0c5,-16 11,-27 18,-33 5,-4 13,-7 22,-7l95 0z"/>
  <path class="fil0" d="M1123 3104l1 -5 2 -2c2,0 6,-2 12,-3 6,-2 11,-4 14,-5 0,-1 1,-4 2,-8 1,-7 3,-11 4,-14 1,-3 3,-7 6,-10 3,-4 8,-9 16,-15 8,-7 15,-12 21,-17 7,-4 12,-7 15,-9 3,-1 7,-2 11,-2 4,0 8,1 12,3 -3,12 -6,23 -8,35l-4 1c-7,-11 -14,-16 -20,-16 -3,0 -5,1 -8,2 -2,2 -4,4 -5,7 -1,2 -3,8 -5,17 -2,10 -4,19 -6,28l3 0c2,0 7,0 16,-1 8,0 13,-1 16,-1l1 2c-2,5 -3,9 -4,13l-1 1c-3,0 -10,0 -19,0 -8,0 -12,0 -15,0l-10 47c-4,19 -9,36 -13,51 -5,20 -11,35 -16,46 -5,10 -12,19 -20,27 -8,8 -16,14 -22,17 -4,2 -8,3 -12,3 -3,0 -7,-1 -10,-2 4,-12 7,-22 9,-31l4 0c4,8 8,12 14,12 2,0 3,-1 5,-1 2,-1 4,-3 5,-5 2,-2 4,-8 6,-17 2,-9 5,-22 8,-39l10 -53 11 -55c-5,0 -9,0 -12,0 -5,0 -9,0 -13,0l-1 -1z"/>
  <path class="fil0" d="M1330 3105l-29 0 -1 -1 1 -5 2 -2c7,-1 17,-4 30,-9 0,-2 1,-6 2,-13 2,-10 3,-18 3,-25 5,-1 13,-4 24,-8 5,-2 9,-3 10,-3l3 3c-3,9 -7,25 -13,48l14 0c11,0 19,0 23,-1l2 3c-1,4 -2,8 -3,13l-2 1c-7,-1 -14,-1 -22,-1l-15 0c-1,8 -3,16 -5,26l-6 26 -4 21c-1,6 -2,10 -2,11 0,2 0,4 0,5 0,2 0,4 2,5 1,1 2,2 4,2 2,0 4,0 5,-1 2,-1 5,-2 8,-4 3,-2 9,-6 17,-12l2 0 3 6 -1 1c-20,15 -34,25 -41,28 -6,3 -11,5 -15,5 -6,0 -10,-2 -12,-5 -3,-4 -4,-8 -4,-13 0,-3 0,-8 1,-13 1,-5 4,-17 8,-35 7,-33 10,-50 11,-53z"/>
  <path class="fil0" d="M1279 3242c0,7 -2,14 -6,20 -4,5 -8,8 -14,11 -6,2 -13,3 -20,3 -10,0 -19,-2 -28,-6l-1 -2c1,-5 2,-12 2,-22l1 -1 4 0 1 1 0 2c0,2 0,5 0,10 2,3 5,5 9,7 5,2 9,3 14,3 9,0 15,-3 18,-9 2,-3 3,-7 3,-10 0,-6 -2,-10 -7,-12 -3,-2 -6,-3 -12,-3 -12,-2 -20,-5 -24,-7 -5,-5 -8,-11 -8,-20 0,-9 3,-17 9,-22 7,-6 16,-9 28,-9 10,0 19,2 25,5l1 2c-1,5 -2,12 -2,19l-1 1 -4 0 -1 -1c0,-5 0,-9 -1,-11 -1,-2 -3,-3 -7,-5 -4,-1 -7,-2 -11,-2 -7,0 -11,1 -15,5 -3,3 -5,7 -5,11 0,6 2,9 6,12 2,1 8,3 17,4 1,0 4,1 8,2 3,0 5,1 7,2 5,1 8,4 11,8 2,3 3,8 3,14z"/>
  <path class="fil0" d="M1689 3175c0,15 -5,26 -16,35 -11,9 -26,14 -43,14 -13,0 -27,-3 -41,-8l-1 -3c0,-8 1,-14 1,-19l1 -17 1 -1 8 0 2 1c0,10 1,16 1,18 8,10 18,15 30,15 8,0 15,-2 19,-6 5,-4 8,-9 8,-16 0,-8 -4,-13 -11,-16 -3,-1 -9,-3 -19,-5 -14,-3 -24,-7 -30,-11 -7,-6 -11,-15 -11,-27 0,-13 5,-24 14,-31 10,-9 24,-13 41,-13 14,0 26,2 36,7l1 3c-1,4 -2,14 -2,31l-2 1 -8 0 -1 -1c0,-7 -1,-12 -2,-16 -6,-7 -14,-11 -25,-11 -7,0 -13,2 -17,5 -5,4 -7,8 -7,14 0,7 4,12 12,15 3,1 10,3 20,5 15,3 25,6 30,10 7,6 11,15 11,27z"/>
  <path class="fil0" d="M1765 3040c0,6 -2,11 -6,15 -5,4 -9,6 -15,6 -6,0 -11,-2 -15,-6 -4,-4 -6,-9 -6,-15 0,-6 2,-11 6,-15 4,-4 9,-6 15,-6 6,0 10,2 14,6 5,4 7,9 7,15zm18 177l-1 2c-9,-1 -21,-1 -37,-1 -16,0 -29,0 -37,1l-2 -2 0 -8 2 -1c9,-1 14,-1 16,-2 2,-1 3,-3 3,-7 1,-12 1,-24 1,-38l0 -19c0,-18 -1,-28 -2,-31 -1,-2 -3,-3 -6,-4 -1,0 -5,0 -12,0l-1 -2 0 -7 1 -2c18,-1 35,-5 53,-11l3 2c-2,16 -2,30 -2,41l0 44c0,6 0,15 1,27 0,4 1,6 3,7 2,1 7,1 16,2l1 1 0 8z"/>
  <path class="fil0" d="M1955 3217l-1 2c-10,-1 -19,-1 -26,-1 -6,0 -15,0 -27,1l-2 -2c2,-20 3,-35 3,-46l0 -27c0,-22 -8,-33 -24,-33 -8,0 -15,3 -20,9 -4,4 -6,9 -6,14l0 25c0,24 1,38 2,44 1,3 6,4 16,5l1 1 0 8 -1 2c-8,-1 -19,-1 -35,-1 -16,0 -28,0 -37,1l-1 -2 0 -8 1 -1c9,-1 14,-1 17,-2 1,-1 2,-3 3,-7 0,-12 0,-24 0,-38l0 -19c0,-18 0,-29 -2,-31 0,-2 -2,-3 -5,-4 -1,0 -5,0 -12,0l-2 -2 0 -7 2 -2c16,-1 33,-5 51,-11l3 2 0 22 23 -19c6,-3 13,-4 20,-4 14,0 25,5 32,13 6,7 9,18 9,31 0,2 0,8 -1,19 0,11 0,19 0,24 0,13 0,22 1,26 0,4 1,6 3,7 1,1 6,2 14,2l1 1 0 8z"/>
  <path class="fil0" d="M2042 3260c-11,-12 -20,-26 -30,-42 -9,-16 -16,-31 -19,-43 -4,-13 -6,-28 -6,-43 0,-15 2,-28 5,-40 3,-12 9,-24 16,-38 7,-13 17,-26 29,-39 12,-13 27,-27 44,-40l2 0 6 6 0 2c-21,21 -37,47 -49,77 -11,30 -17,62 -17,95 0,21 3,39 8,56 4,16 11,30 20,42l0 2 -7 5 -2 0z"/>
  <path class="fil0" d="M2699 2975c9,10 18,24 28,40 10,16 16,31 20,44 5,13 7,28 7,45 0,14 -2,27 -5,39 -3,12 -9,24 -16,38 -7,13 -17,26 -29,39 -13,13 -27,27 -44,40l-2 0 -6 -6 0 -2c21,-21 37,-46 48,-77 12,-30 17,-62 17,-95 0,-40 -9,-73 -27,-98l0 -2 7 -5 2 0z"/>
  <path class="fil0" d="M2073 3219l-1 -2 1 -6c1,-1 5,-5 12,-12 10,-10 22,-22 35,-37 14,-15 24,-30 32,-43 7,-14 11,-26 11,-37 0,-9 -3,-17 -7,-22 -5,-5 -12,-8 -21,-8 -6,0 -12,1 -16,3 -4,2 -8,5 -10,9 -3,3 -6,9 -10,16l-2 1 -6 -2 -1 -1 15 -37c7,-6 14,-10 20,-12 7,-2 13,-3 19,-3 11,0 20,2 28,6 8,4 14,9 18,17 5,7 7,15 7,25 0,6 -1,10 -2,14 -1,4 -2,9 -5,13 -2,5 -6,11 -11,18 -6,7 -11,13 -17,18 -5,6 -14,14 -26,26l-26 25 0 2 15 0 35 0c11,0 19,-1 22,-1 4,0 9,-1 13,-2l3 2c-2,4 -5,14 -9,29l-2 1c-24,-1 -43,-1 -56,-1l-58 1z"/>
  <path class="fil0" d="M2377 3104l1 -5 1 -2c2,0 6,-2 13,-3 6,-2 11,-4 14,-5 0,-1 1,-4 2,-8 1,-7 2,-11 4,-14 1,-3 3,-7 6,-10 3,-4 8,-9 16,-15 7,-7 14,-12 21,-17 7,-4 11,-7 15,-9 3,-1 7,-2 11,-2 4,0 8,1 12,3 -4,12 -6,23 -8,35l-4 1c-7,-11 -14,-16 -21,-16 -2,0 -5,1 -7,2 -2,2 -4,4 -5,7 -1,2 -3,8 -5,17 -3,10 -4,19 -6,28l3 0c2,0 7,0 15,-1 9,0 14,-1 16,-1l2 2c-2,5 -3,9 -4,13l-2 1c-3,0 -9,0 -18,0 -8,0 -13,0 -15,0l-10 47c-5,19 -9,36 -13,51 -6,20 -11,35 -16,46 -6,10 -12,19 -21,27 -8,8 -15,14 -21,17 -5,2 -8,3 -12,3 -3,0 -7,-1 -10,-2 4,-12 7,-22 8,-31l5 0c3,8 8,12 13,12 2,0 4,-1 6,-1 2,-1 3,-3 5,-5 1,-2 3,-8 6,-17 2,-9 5,-22 8,-39l10 -53 11 -55c-6,0 -10,0 -13,0 -4,0 -9,0 -12,0l-1 -1z"/>
  <path class="fil0" d="M2598 3105l-29 0 -1 -1 1 -5 2 -2c7,-1 17,-4 30,-9 0,-2 1,-6 2,-13 2,-10 3,-18 3,-25 5,-1 13,-4 24,-8 5,-2 9,-3 10,-3l3 3c-3,9 -7,25 -13,48l14 0c11,0 19,0 23,-1l2 3c-1,4 -2,8 -3,13l-2 1c-7,-1 -14,-1 -22,-1l-15 0c-1,8 -3,16 -5,26l-6 26 -4 21c-1,6 -2,10 -2,11 0,2 0,4 0,5 0,2 0,4 2,5 1,1 2,2 4,2 2,0 4,0 5,-1 2,-1 5,-2 8,-4 4,-2 9,-6 17,-12l2 0 3 6 0 1c-21,15 -35,25 -42,28 -6,3 -11,5 -15,5 -6,0 -10,-2 -12,-5 -3,-4 -4,-8 -4,-13 0,-3 0,-8 1,-13 1,-5 4,-17 8,-35 7,-33 10,-50 11,-53z"/>
  <path class="fil0" d="M2353 3093l0 20 -33 0c-3,21 -5,41 -5,60 0,9 2,16 5,20 4,4 8,6 12,6 4,0 8,-2 11,-4 3,-3 4,-7 5,-12l5 0c-2,14 -5,24 -10,30 -6,6 -12,9 -18,9 -7,0 -13,-3 -18,-10 -4,-6 -7,-18 -7,-36 0,-11 2,-32 5,-63l-35 0c-3,48 -6,77 -10,90 -4,13 -10,19 -17,19 -3,0 -5,-1 -8,-3 -2,-3 -3,-5 -3,-8 0,-3 1,-5 1,-7 1,-2 3,-5 7,-9 5,-8 9,-15 11,-24 4,-13 7,-33 8,-58l-6 0c-7,0 -12,1 -15,3 -5,4 -10,9 -15,17l-5 0c5,-16 11,-27 18,-33 5,-4 12,-7 22,-7l95 0z"/>
  <path class="fil0" d="M2553 3273l-1 1c0,0 -1,0 -2,0 -7,-1 -11,-1 -12,-1 -2,0 -6,0 -11,1 0,-1 -1,-3 -3,-6l-16 -28 -8 -11c-1,-2 -2,-3 -4,-4l1 -3c1,0 2,0 2,0 5,0 8,0 11,-2 2,-1 4,-3 6,-6 2,-4 3,-7 3,-12 0,-7 -3,-13 -9,-15 -2,-2 -6,-2 -12,-2 -2,0 -4,0 -6,0 -1,5 -1,12 -1,23l0 35c0,11 0,18 1,22 0,1 1,2 2,2 1,0 4,0 8,1l1 0 0 5 -1 1c-4,-1 -11,-1 -20,-1 -10,0 -17,0 -21,1l-1 -1 0 -5 1 0c4,-1 7,-1 8,-1 1,0 2,-1 2,-2 0,-4 1,-11 1,-22l0 -35c0,-11 -1,-18 -1,-21 0,-2 -1,-3 -2,-3 -1,0 -4,0 -8,-1l-1 0 0 -5 1 0c4,0 11,0 21,0 5,0 9,0 13,0 7,-1 12,-1 15,-1 8,0 14,1 18,2 4,2 8,6 9,10 1,2 2,5 2,8 0,12 -7,21 -21,26 2,4 5,8 7,12l11 16c6,9 10,15 12,16 1,1 2,1 4,1l1 1 0 4z"/>
  <g>
   <path class="fil0" d="M1183 1033l-7 -40 35 10 -28 30 0 0z"/>
   <path class="fil0" d="M1383 342l-196 654 13 4 196 -654z"/>
  </g>
  <g>
   <path class="fil0" d="M780 2342l31 25 -33 15 2 -40 0 0z"/>
   <path class="fil0" d="M1032 2880l-231 -508 -13 5 231 509z"/>
  </g>
 </g>
 <g id="2">
  <path class="fil1 str0" d="M349 2791l0 0 16 0 16 -1 16 -1 16 -2 16 -2 16 -3 16 -4 16 -4 16 -4 16 -5 16 -5 16 -6 16 -7 16 -7 16 -7 16 -8 16 -9 16 -9 16 -9 16 -10 16 -11 16 -10 16 -12 16 -11 16 -13 16 -12 16 -14 16 -13 16 -14 16 -14 16 -15 16 -16 16 -15 16 -16 16 -17 16 -17 16 -17 16 -18 16 -18 16 -18 16 -19 16 -19 16 -19 16 -20 16 -20 16 -20 16 -21 16 -21 16 -21 15 -21 16 -22 16 -22 16 -22 16 -23 16 -22 16 -23 16 -23 16 -23 16 -24 16 -23 16 -24 16 -24 16 -24 16 -24 16 -24 16 -25 16 -24 16 -25 16 -24 16 -25 16 -24 16 -25 16 -25 16 -25 16 -25 16 -24 16 -25 16 -25 16 -25 16 -24 16 -25 16 -25 16 -24 16 -24 16 -25 16 -24 16 -24 16 -24 16 -24 16 -23 16 -24 16 -23 16 -23 16 -23 16 -23 16 -22 16 -22 16 -22 16 -22 16 -22 16 -21 16 -21 16 -20 16 -20 16 -20 16 -20 16 -20 16 -19 16 -18 16 -19 16 -18 16 -17 16 -18 16 -17 16 -16 16 -17 16 -15 16 -15 16 -16 16 -14 16 -14 16 -14 16 -13 16 -13 16 -12 16 -12 16 -11 16 -11 16 -11 16 -9 16 -10 16 -9 16 -8 16 -8 16 -8 16 -7 16 -7 16 -6 16 -5 16 -5 16 -4 16 -4 16 -4 16 -2 16 -3 16 -2 16 -1 16 -1 16 0 15 0 16 1 16 1 16 1 16 3 16 3 16 3 16 4 16 4 16 5 16 5 16 6 16 7 16 7 16 7 16 8 16 8 16 9 16 10 16 9 16 11 16 11 16 11 16 12 16 12 16 13 16 13 16 13 16 14 16 15 16 14 16 16 16 15 16 16 16 17 16 17 16 17 16 18 16 18 16 18 16 18 16 19 16 20 16 19 16 20 16 21 16 20 16 21 16 21 16 22 16 21 16 22 16 22 16 23 16 23 16 22 16 23 16 23 16 24 16 24 16 23 16 24 16 24 16 24 16 25 16 24 16 24 16 25 16 24 16 25 16 25 16 24 16 25 16 25 16 25 16 25 16 25 16 24 16 25 16 25 16 24 16 25 16 25 16 24 16 24 16 24 16 24 16 24 16 24 16 24 16 23 16 23 16 23 16 23 16 23 16 22 16 23 16 22 16 21 16 22 15 21 16 21 16 21 16 20 16 20 16 20 16 19 16 19 16 19 16 19 16 18 16 17 16 18 16 16 16 17 16 16 16 16 16 15 16 16 16 14 16 14 16 14 16 13 16 13 16 12 16 12 16 11 16 11 16 11 16 10 16 10 16 9 16 8 16 8 16 8 16 7 16 6 16 7 16 5 16 5 16 5 16 4 16 3 16 3 16 2 16 2 16 2 16 1 16 0 16 0"/>
  <path class="fil1 str0" d="M349 436l0 0 16 0 16 1 16 1 16 2 16 2 16 3 16 4 16 3 16 5 16 4 16 6 16 6 16 6 16 7 16 8 16 8 16 8 16 9 16 10 16 9 16 11 16 11 16 11 16 12 16 12 16 13 16 13 16 14 16 14 16 14 16 15 16 15 16 16 16 16 16 16 16 18 16 16 16 18 16 18 16 19 16 19 16 18 16 20 16 19 16 20 16 21 16 21 16 20 16 21 15 22 16 22 16 22 16 22 16 22 16 23 16 23 16 23 16 23 16 23 16 24 16 23 16 24 16 25 16 23 16 25 16 24 16 25 16 24 16 25 16 25 16 24 16 25 16 25 16 25 16 25 16 24 16 25 16 25 16 25 16 24 16 25 16 24 16 25 16 24 16 24 16 25 16 24 16 23 16 24 16 24 16 23 16 24 16 23 16 23 16 22 16 22 16 23 16 22 16 22 16 21 16 21 16 21 16 21 16 20 16 20 16 20 16 20 16 18 16 19 16 18 16 19 16 17 16 17 16 18 16 16 16 16 16 16 16 15 16 15 16 15 16 14 16 13 16 13 16 13 16 12 16 12 16 11 16 11 16 11 16 10 16 10 16 8 16 9 16 8 16 8 16 7 16 6 16 6 16 6 16 4 16 5 16 4 16 3 16 3 16 3 16 1 16 2 16 1 16 0 15 0 16 -1 16 -1 16 -2 16 -2 16 -3 16 -3 16 -4 16 -5 16 -4 16 -6 16 -6 16 -6 16 -7 16 -7 16 -8 16 -9 16 -9 16 -9 16 -10 16 -11 16 -10 16 -11 16 -12 16 -13 16 -12 16 -13 16 -14 16 -14 16 -14 16 -15 16 -15 16 -16 16 -16 16 -16 16 -17 16 -17 16 -18 16 -18 16 -18 16 -19 16 -19 16 -19 16 -20 16 -20 16 -20 16 -21 16 -20 16 -21 16 -22 16 -22 16 -21 16 -23 16 -22 16 -23 16 -23 16 -23 16 -23 16 -23 16 -24 16 -24 16 -24 16 -23 16 -25 16 -24 16 -24 16 -25 16 -24 16 -25 16 -24 16 -25 16 -25 16 -25 16 -24 16 -25 16 -25 16 -25 16 -25 16 -24 16 -25 16 -25 16 -25 16 -24 16 -24 16 -25 16 -23 16 -25 16 -24 16 -23 16 -24 16 -24 16 -23 16 -23 16 -23 16 -23 16 -22 16 -22 16 -22 16 -22 16 -21 15 -22 16 -21 16 -20 16 -20 16 -21 16 -19 16 -20 16 -19 16 -19 16 -18 16 -18 16 -18 16 -17 16 -17 16 -17 16 -16 16 -16 16 -15 16 -15 16 -15 16 -14 16 -13 16 -14 16 -12 16 -13 16 -11 16 -12 16 -11 16 -10 16 -10 16 -10 16 -9 16 -8 16 -8 16 -8 16 -7 16 -7 16 -6 16 -5 16 -5 16 -5 16 -4 16 -3 16 -3 16 -3 16 -2 16 -1 16 -1 16 0 16 0"/>
 </g>
 <g id="0">
  <path class="fil1 str1" d="M349 1613l0 0 16 -258 16 -247 16 -220 16 -185 16 -138 16 -87 16 -29 16 27 16 83 16 135 16 179 16 213 16 237 16 248 16 247 16 234 16 209 16 174 16 130 16 82 16 29 16 -23 16 -75 16 -120 16 -158 16 -189 16 -208 16 -217 16 -214 16 -201 16 -178 16 -148 16 -109 16 -67 16 -24 16 21 16 60 16 98 16 127 16 149 16 163 16 167 16 163 16 150 16 131 16 106 16 76 16 44 16 12 15 -18 16 -47 16 -70 16 -88 16 -100 16 -105 16 -104 16 -98 16 -86 16 -70 16 -52 16 -32 16 -13 16 4 16 21 16 33 16 41 16 45 16 45 16 41 16 33 16 25 16 13 16 1 16 -9 16 -17 16 -24 16 -27 16 -26 16 -22 16 -13 16 -4 16 11 16 23 16 39 16 51 16 61 16 70 16 72 16 71 16 63 16 52 16 35 16 14 16 -10 16 -35 16 -60 16 -84 16 -105 16 -121 16 -132 16 -136 16 -132 16 -121 16 -102 16 -77 16 -46 16 -11 16 27 16 65 16 102 16 134 16 161 16 180 16 191 16 193 16 183 16 164 16 136 16 100 16 57 16 11 16 -38 16 -87 16 -131 16 -170 16 -201 16 -224 16 -233 16 -234 16 -219 16 -196 16 -161 16 -118 16 -67 16 -12 16 43 16 97 16 147 16 190 16 224 16 246 16 257 16 254 16 240 16 211 16 174 16 126 16 73 16 15 15 -42 16 -99 16 -149 16 -193 16 -226 16 -249 16 -257 16 -254 16 -238 16 -210 16 -172 16 -125 16 -72 16 -17 16 38 16 92 16 139 16 180 16 209 16 229 16 237 16 232 16 216 16 189 16 154 16 112 16 64 16 16 16 -33 16 -79 16 -118 16 -152 16 -176 16 -191 16 -195 16 -190 16 -175 16 -151 16 -122 16 -86 16 -48 16 -10 16 28 16 61 16 91 16 114 16 130 16 137 16 138 16 131 16 118 16 98 16 76 16 50 16 24 16 -1 16 -24 16 -44 16 -59 16 -70 16 -75 16 -74 16 -70 16 -60 16 -50 16 -34 16 -21 16 -6 16 7 16 17 16 24 16 28 16 27 16 23 16 17 16 8 16 -4 16 -15 16 -25 16 -34 16 -40 16 -43 16 -42 16 -37 16 -27 16 -14 16 1 16 20 16 40 16 57 16 75 16 89 16 98 16 102 16 101 16 92 16 79 16 59 16 33 16 5 15 -26 16 -57 16 -88 16 -116 16 -138 16 -154 16 -163 16 -164 16 -155 16 -138 16 -113 16 -80 16 -42 16 0 16 43 16 86 16 126 16 161 16 188 16 207 16 215 16 212 16 198 16 175 16 140 16 99 16 51 16 -1 16 -53 16 -105 16 -150 16 -190 16 -221 16 -241 16 -248 16 -244 16 -226 16 -198 16 -158 16 -112 16 -57 16 -1 16 57 16 111 16 160 16 203 16 234 16 253 16 261 16 254"/>
 </g>
 <g id="1">
  <g>
   <path class="fil0" d="M5593 1599l-5574 0 0 28 5574 0z"/>
   <path class="fil0" d="M5691 1613l-195 -83 0 0 3 5 2 5 3 6 2 5 1 5 2 5 2 5 1 6 1 5 1 5 1 5 1 5 1 6 0 5 0 5 0 5 0 6 0 5 0 5 -1 5 -1 5 -1 6 -1 5 -1 5 -1 5 -2 5 -2 6 -1 5 -2 5 -3 5 -2 5 -3 6 195 -84 0 0z"/>
  </g>
 </g>
</svg>
